<!-- Generator: Adobe Illustrator 21.0.0, SVG Export Plug-In  -->
<svg version="1.1"
	 xmlns="http://www.w3.org/2000/svg" xmlns:xlink="http://www.w3.org/1999/xlink" xmlns:a="http://ns.adobe.com/AdobeSVGViewerExtensions/3.0/"
	 x="0px" y="0px" width="89.758px" height="89.758px" viewBox="0 0 89.758 89.758"
	 style="enable-background:new 0 0 89.758 89.758;" xml:space="preserve">
<style type="text/css">
	.st0{fill:#939598;}
	.st1{fill:#DC4F42;}
	.st2{fill:#FFFFFF;}
</style>
<defs>
</defs>
<g>
	<path class="st0" d="M89.758,44.879c0,24.785-20.094,44.879-44.879,44.879S0,69.664,0,44.879C0,20.094,20.094,0,44.879,0
		S89.758,20.094,89.758,44.879L89.758,44.879z M89.758,44.879"/>
	<path class="st1" d="M15.625,46.887c-0.16,7.723,5.16,15.09,12.477,17.492c6.89,2.317,15.363,0.586,19.949-5.316
		c3.347-4.137,4.109-9.649,3.746-14.797c-5.902-0.055-11.805-0.035-17.695-0.028c-0.012,2.102,0,4.196,0.007,6.297
		c3.532,0.098,7.067,0.055,10.602,0.125c-0.891,3.059-2.926,5.903-6.008,7.008c-5.957,2.621-13.551-0.805-15.426-7.051
		c-2.261-5.984,1.442-13.203,7.555-14.941c3.789-1.332,7.695,0.168,10.938,2.137c1.64-1.535,3.179-3.18,4.691-4.84
		c-3.688-3.082-8.422-4.973-13.289-4.559C23.621,28.528,15.262,37.344,15.625,46.887L15.625,46.887z M15.625,46.887"/>
	<path class="st1" d="M63.281,38.934c-0.015,1.762-0.035,3.527-0.043,5.285c-1.769,0.016-3.527,0.027-5.285,0.035v5.266
		c1.758,0.008,3.527,0.015,5.285,0.035c0.016,1.758,0.016,3.516,0.035,5.285c1.75,0,3.508-0.012,5.266,0
		c0.008-1.769,0.016-3.527,0.035-5.293c1.758-0.008,3.524-0.019,5.281-0.027v-5.266c-1.757-0.008-3.523-0.016-5.281-0.035
		c-0.012-1.758-0.027-3.523-0.035-5.281C66.781,38.934,65.031,38.934,63.281,38.934L63.281,38.934z M63.281,38.934"/>
	<path class="st2" d="M15.625,46.887c-0.363-9.543,7.996-18.359,17.547-18.473c4.867-0.414,9.601,1.477,13.289,4.559
		c-1.512,1.66-3.051,3.305-4.691,4.84c-3.247-1.969-7.149-3.473-10.942-2.137c-6.113,1.738-9.816,8.957-7.551,14.937
		c1.871,6.25,9.469,9.676,15.426,7.051c3.082-1.101,5.113-3.945,6.008-7.004c-3.535-0.07-7.07-0.027-10.602-0.125
		c-0.011-2.101-0.019-4.195-0.011-6.297c5.894-0.011,11.797-0.027,17.699,0.024c0.359,5.152-0.399,10.664-3.75,14.801
		c-4.582,5.902-13.055,7.633-19.949,5.316C20.785,61.977,15.465,54.61,15.625,46.887L15.625,46.887z M15.625,46.887"/>
	<path class="st2" d="M63.281,38.934h5.258c0.008,1.762,0.023,3.527,0.035,5.285c1.758,0.016,3.524,0.027,5.281,0.035v5.266
		c-1.757,0.008-3.523,0.015-5.281,0.027c-0.019,1.766-0.027,3.524-0.035,5.289c-1.758-0.008-3.519,0-5.266,0
		c-0.019-1.765-0.019-3.523-0.035-5.281c-1.758-0.02-3.527-0.027-5.285-0.035v-5.266c1.758-0.012,3.516-0.019,5.285-0.035
		C63.246,42.461,63.262,40.696,63.281,38.934L63.281,38.934z M63.281,38.934"/>
</g>
</svg>