<!-- Generator: Adobe Illustrator 21.0.0, SVG Export Plug-In  -->
<svg version="1.1"
	 xmlns="http://www.w3.org/2000/svg" xmlns:xlink="http://www.w3.org/1999/xlink" xmlns:a="http://ns.adobe.com/AdobeSVGViewerExtensions/3.0/"
	 x="0px" y="0px" width="89.758px" height="89.758px" viewBox="0 0 89.758 89.758"
	 style="enable-background:new 0 0 89.758 89.758;" xml:space="preserve">
<style type="text/css">
	.st0{fill:#939598;}
	.st1{fill:#F2F2F2;}
</style>
<defs>
</defs>
<g>
	<path class="st0" d="M89.758,44.879c0,24.785-20.094,44.879-44.879,44.879S0,69.664,0,44.879C0,20.094,20.094,0,44.879,0
		S89.758,20.094,89.758,44.879L89.758,44.879z M89.758,44.879"/>
	<path class="st1" d="M72.367,32.254c-1.922,0.852-3.992,1.43-6.16,1.688c2.215-1.329,3.914-3.43,4.719-5.934
		c-2.074,1.227-4.371,2.121-6.813,2.602c-1.957-2.086-4.746-3.387-7.832-3.387c-5.926,0-10.726,4.805-10.726,10.726
		c0,0.84,0.093,1.661,0.277,2.446c-8.914-0.449-16.82-4.719-22.109-11.211c-0.926,1.586-1.453,3.429-1.453,5.394
		c0,3.723,1.894,7.008,4.769,8.93c-1.758-0.055-3.41-0.539-4.859-1.344c0,0.047,0,0.09,0,0.137c0,5.195,3.699,9.531,8.605,10.516
		c-0.898,0.246-1.847,0.379-2.824,0.379c-0.691,0-1.363-0.067-2.02-0.192c1.368,4.262,5.329,7.363,10.024,7.449
		c-3.672,2.879-8.297,4.59-13.324,4.59c-0.868,0-1.723-0.047-2.559-0.148c4.746,3.043,10.383,4.82,16.441,4.82
		c19.731,0,30.524-16.348,30.524-30.523c0-0.465-0.012-0.926-0.031-1.387C69.113,36.293,70.93,34.403,72.367,32.254L72.367,32.254z
		 M72.367,32.254"/>
</g>
</svg>