<!-- Generator: Adobe Illustrator 21.0.0, SVG Export Plug-In  -->
<svg version="1.1"
	 xmlns="http://www.w3.org/2000/svg" xmlns:xlink="http://www.w3.org/1999/xlink" xmlns:a="http://ns.adobe.com/AdobeSVGViewerExtensions/3.0/"
	 x="0px" y="0px" width="504.384px" height="127.289px" viewBox="0 0 504.384 127.289"
	 style="enable-background:new 0 0 504.384 127.289;" xml:space="preserve">
<style type="text/css">
	.st0{fill:#020202;}
	.st1{fill:#5C5B60;}
	.st2{fill:#A8CF39;}
</style>
<defs>
</defs>
<g>
	<path class="st0" d="M244.444,88.798c-7.859,0-14.085-2.303-18.507-6.846c-4.411-4.531-6.646-10.72-6.646-18.394
		c0-3.592,0.544-6.977,1.618-10.064c1.086-3.123,2.698-5.847,4.793-8.093c2.104-2.257,4.727-4.009,7.794-5.21
		c3.031-1.185,6.427-1.787,10.095-1.787c4.796,0,8.989,1.038,12.46,3.084c3.478,2.05,6.125,4.749,7.869,8.02
		c1.728,3.246,2.604,6.607,2.604,9.993c0,3.507-1.113,5.86-3.307,6.994c-1.904,0.986-4.442,1.465-7.756,1.465h-21.267
		c0.172,1.813,0.629,3.448,1.365,4.879c0.919,1.789,2.094,3.091,3.591,3.982c1.506,0.897,3.127,1.332,4.954,1.332
		c1.254,0,2.405-0.147,3.423-0.435c1.009-0.286,2.005-0.744,2.96-1.36c1.018-0.656,1.965-1.367,2.819-2.113
		c0.901-0.788,2.069-1.859,3.504-3.209c0.917-0.788,2.098-1.165,3.561-1.165c1.556,0,2.858,0.453,3.868,1.348
		c1.063,0.942,1.603,2.242,1.603,3.867c0,1.329-0.471,2.778-1.437,4.43c-0.917,1.563-2.296,3.067-4.099,4.47
		c-1.785,1.388-4.04,2.55-6.703,3.453C250.942,88.341,247.861,88.798,244.444,88.798z M234.325,58.43h17.854
		c-0.396-2.847-1.291-5.026-2.669-6.488c-1.591-1.688-3.653-2.509-6.305-2.509c-2.503,0-4.493,0.832-6.084,2.545
		C235.741,53.463,234.803,55.63,234.325,58.43z"/>
	<path class="st0" d="M295.551,88.713c-7.58,0-13.607-2.269-17.915-6.745c-4.292-4.46-6.47-10.481-6.47-17.897
		c0-4.99,0.986-9.476,2.932-13.337c1.971-3.914,4.866-6.984,8.603-9.126c3.707-2.126,8.175-3.203,13.277-3.203
		c3.165,0,6.121,0.472,8.785,1.405c2.661,0.932,4.96,2.16,6.831,3.651c1.883,1.501,3.352,3.138,4.364,4.865
		c1.053,1.799,1.587,3.533,1.587,5.156c0,1.81-0.68,3.361-2.022,4.61c-1.312,1.223-2.918,1.842-4.772,1.842
		c-1.295,0-2.408-0.354-3.308-1.054c-0.756-0.588-1.557-1.476-2.445-2.713c-1.348-2.046-2.72-3.551-4.112-4.522
		c-1.294-0.903-3.003-1.361-5.08-1.361c-2.999,0-5.347,1.137-7.179,3.476c-1.89,2.414-2.849,5.825-2.849,10.138
		c0,2.042,0.253,3.936,0.752,5.629c0.485,1.648,1.19,3.062,2.094,4.204c0.877,1.109,1.947,1.958,3.181,2.527
		c1.253,0.577,2.657,0.87,4.173,0.87c2.038,0,3.789-0.467,5.205-1.387c1.463-0.951,2.792-2.451,3.951-4.459
		c0.77-1.417,1.65-2.582,2.595-3.431c1.097-0.984,2.445-1.483,4.005-1.483c1.857,0,3.42,0.714,4.644,2.124
		c1.173,1.351,1.766,2.836,1.766,4.414c0,1.684-0.494,3.478-1.47,5.333c-0.952,1.811-2.407,3.545-4.322,5.155
		c-1.911,1.605-4.332,2.908-7.197,3.873C302.312,88.228,299.081,88.713,295.551,88.713z"/>
	<g>
		<path class="st0" d="M85.998,88.713c-7.58,0-13.607-2.269-17.915-6.745c-4.292-4.46-6.47-10.481-6.47-17.897
			c0-4.99,0.986-9.476,2.932-13.337c1.971-3.914,4.866-6.984,8.603-9.126c3.708-2.126,8.175-3.203,13.277-3.203
			c3.165,0,6.121,0.472,8.785,1.405c2.661,0.932,4.96,2.16,6.831,3.651c1.883,1.501,3.352,3.138,4.364,4.865
			c1.053,1.799,1.587,3.533,1.587,5.156c0,1.81-0.68,3.361-2.022,4.61c-1.312,1.223-2.918,1.842-4.772,1.842
			c-1.295,0-2.408-0.354-3.308-1.054c-0.756-0.588-1.557-1.476-2.445-2.713c-1.348-2.046-2.72-3.551-4.112-4.522
			c-1.294-0.903-3.003-1.361-5.08-1.361c-2.999,0-5.347,1.137-7.179,3.476c-1.89,2.414-2.849,5.825-2.849,10.138
			c0,2.042,0.253,3.936,0.752,5.629c0.485,1.648,1.19,3.062,2.094,4.204c0.877,1.109,1.947,1.958,3.181,2.527
			c1.252,0.577,2.657,0.87,4.173,0.87c2.038,0,3.789-0.467,5.205-1.387c1.463-0.951,2.792-2.451,3.951-4.459
			c0.77-1.417,1.65-2.582,2.595-3.431c1.097-0.984,2.445-1.483,4.005-1.483c1.857,0,3.42,0.714,4.644,2.124
			c1.173,1.351,1.766,2.836,1.766,4.414c0,1.684-0.494,3.478-1.47,5.333c-0.952,1.811-2.407,3.545-4.322,5.155
			c-1.911,1.605-4.332,2.908-7.197,3.873C92.758,88.228,89.527,88.713,85.998,88.713z"/>
	</g>
	<g>
		<path class="st0" d="M160.93,63.644c0,3.473-0.541,6.676-1.622,9.607c-1.082,2.932-2.647,5.451-4.697,7.557
			c-2.049,2.107-4.497,3.722-7.344,4.846c-2.846,1.124-6.049,1.686-9.607,1.686c-3.53,0-6.703-0.57-9.521-1.708
			c-2.818-1.138-5.259-2.768-7.322-4.889c-2.064-2.12-3.629-4.625-4.697-7.514c-1.067-2.888-1.601-6.084-1.601-9.585
			c0-3.529,0.541-6.76,1.622-9.692c1.082-2.931,2.633-5.437,4.654-7.514c2.021-2.077,4.469-3.678,7.344-4.803
			c2.875-1.124,6.049-1.687,9.521-1.687c3.529,0,6.732,0.57,9.607,1.708c2.875,1.139,5.337,2.761,7.387,4.867
			c2.049,2.107,3.608,4.611,4.675,7.515C160.396,56.941,160.93,60.143,160.93,63.644z M149.231,63.644
			c0-4.754-1.046-8.454-3.138-11.101c-2.092-2.647-4.903-3.971-8.433-3.971c-2.277,0-4.284,0.591-6.02,1.772
			c-1.736,1.181-3.074,2.925-4.013,5.23c-0.939,2.306-1.409,4.996-1.409,8.07c0,3.046,0.463,5.707,1.388,7.984
			c0.925,2.278,2.249,4.021,3.971,5.23c1.722,1.21,3.75,1.815,6.084,1.815c3.529,0,6.34-1.33,8.433-3.992
			C148.185,72.02,149.231,68.341,149.231,63.644z"/>
		<path class="st0" d="M137.66,88.798c-3.699,0-7.086-0.611-10.066-1.814c-2.993-1.208-5.625-2.966-7.822-5.224
			c-2.196-2.256-3.885-4.956-5.02-8.025c-1.121-3.037-1.691-6.432-1.691-10.091c0-3.686,0.576-7.116,1.712-10.197
			c1.149-3.111,2.822-5.812,4.977-8.026c2.158-2.217,4.8-3.948,7.858-5.144c3.031-1.186,6.413-1.787,10.052-1.787
			c3.696,0,7.109,0.609,10.143,1.81c3.054,1.21,5.71,2.961,7.894,5.206c2.183,2.245,3.865,4.946,4.998,8.028
			c1.121,3.051,1.691,6.453,1.691,10.11c0,3.63-0.576,7.032-1.712,10.111c-1.148,3.11-2.836,5.825-5.02,8.069
			c-2.183,2.245-4.826,3.989-7.853,5.185C144.798,88.196,141.386,88.798,137.66,88.798z M137.66,50.03
			c-1.995,0-3.696,0.497-5.2,1.52c-1.487,1.011-2.659,2.55-3.484,4.575c-0.863,2.119-1.301,4.649-1.301,7.519
			c0,2.842,0.431,5.344,1.281,7.436c0.813,2.002,1.977,3.546,3.458,4.586c1.483,1.043,3.199,1.55,5.246,1.55
			c3.087,0,5.469-1.124,7.287-3.435c1.876-2.387,2.826-5.797,2.826-10.137c0-4.395-0.951-7.826-2.824-10.197
			C143.133,51.148,140.747,50.03,137.66,50.03z"/>
	</g>
	<g>
		<path class="st0" d="M205.548,88.798c-2.163,0-3.952-0.783-5.319-2.328c-1.319-1.492-1.988-3.584-1.988-6.217V60.827
			c0-3.587-0.482-6.326-1.435-8.14c-0.801-1.529-2.468-2.272-5.092-2.272c-1.779,0-3.357,0.517-4.823,1.58
			c-1.482,1.075-2.543,2.523-3.245,4.426c-0.339,1.038-0.764,3.53-0.764,9.231v14.602c0,2.732-0.685,4.854-2.032,6.307
			c-1.379,1.485-3.168,2.238-5.317,2.238c-2.106,0-3.867-0.783-5.233-2.328c-1.319-1.492-1.988-3.584-1.988-6.217V46.566
			c0-2.576,0.611-4.574,1.816-5.939c1.254-1.418,2.957-2.136,5.064-2.136c1.282,0,2.464,0.312,3.513,0.926
			c1.064,0.625,1.92,1.556,2.543,2.768c0.307,0.596,0.537,1.255,0.689,1.973c1.514-1.516,3.125-2.722,4.815-3.601
			c2.634-1.37,5.683-2.064,9.063-2.064c3.309,0,6.319,0.737,8.946,2.189c2.676,1.48,4.702,3.604,6.026,6.314
			c0.821,1.519,1.378,3.236,1.628,5.052c0.236,1.709,0.356,3.902,0.356,6.518v21.69c0,2.692-0.663,4.8-1.971,6.265
			C209.447,88.031,207.681,88.798,205.548,88.798z"/>
	</g>
	<g>
		<path class="st1" d="M176.278,112.551l-3.215-12.777v13.844c0,0.766-0.172,1.341-0.512,1.724
			c-0.343,0.383-0.796,0.575-1.362,0.575c-0.547,0-0.994-0.19-1.341-0.568c-0.347-0.378-0.52-0.955-0.52-1.73V97.749
			c0-0.875,0.228-1.466,0.684-1.772c0.456-0.305,1.072-0.458,1.847-0.458h1.259c0.757,0,1.306,0.068,1.649,0.205
			c0.341,0.137,0.594,0.383,0.759,0.739c0.164,0.356,0.351,0.935,0.561,1.737L179,109.186l2.914-10.985
			c0.21-0.802,0.397-1.382,0.561-1.737c0.164-0.356,0.418-0.602,0.759-0.739c0.343-0.137,0.892-0.205,1.649-0.205h1.259
			c0.775,0,1.39,0.153,1.847,0.458c0.456,0.306,0.684,0.896,0.684,1.772v15.869c0,0.766-0.17,1.341-0.514,1.724
			c-0.341,0.383-0.8,0.575-1.374,0.575c-0.538,0-0.98-0.191-1.327-0.575c-0.347-0.383-0.52-0.958-0.52-1.724V99.774l-3.215,12.777
			c-0.21,0.83-0.381,1.439-0.514,1.826c-0.132,0.388-0.376,0.741-0.731,1.06c-0.356,0.319-0.848,0.479-1.477,0.479
			c-0.474,0-0.875-0.103-1.204-0.308c-0.328-0.205-0.583-0.467-0.766-0.787c-0.183-0.319-0.326-0.672-0.43-1.06
			C176.494,113.375,176.387,112.971,176.278,112.551z"/>
		<path class="st1" d="M206.566,108.324c0,1.113-0.173,2.139-0.52,3.078c-0.347,0.94-0.848,1.747-1.505,2.421
			c-0.657,0.675-1.441,1.193-2.353,1.553c-0.912,0.36-1.938,0.54-3.078,0.54c-1.131,0-2.148-0.183-3.051-0.547
			c-0.903-0.364-1.685-0.887-2.347-1.566c-0.66-0.679-1.162-1.482-1.505-2.408c-0.341-0.925-0.512-1.949-0.512-3.071
			c0-1.131,0.173-2.166,0.52-3.105c0.347-0.939,0.843-1.742,1.491-2.408c0.648-0.665,1.431-1.178,2.353-1.539
			c0.922-0.36,1.938-0.54,3.051-0.54c1.131,0,2.156,0.183,3.078,0.547c0.921,0.365,1.71,0.885,2.367,1.559
			c0.657,0.675,1.157,1.478,1.497,2.408C206.395,106.176,206.566,107.202,206.566,108.324z M202.817,108.324
			c0-1.523-0.334-2.709-1.006-3.557c-0.669-0.848-1.571-1.272-2.701-1.272c-0.73,0-1.373,0.19-1.929,0.568
			c-0.556,0.379-0.985,0.937-1.286,1.676c-0.301,0.739-0.451,1.601-0.451,2.586c0,0.976,0.148,1.829,0.445,2.558
			c0.296,0.73,0.72,1.288,1.271,1.676c0.552,0.388,1.203,0.581,1.95,0.581c1.131,0,2.032-0.426,2.701-1.279
			C202.483,111.008,202.817,109.829,202.817,108.324z"/>
		<path class="st1" d="M212.954,97.312v5.705c0.703-0.729,1.418-1.288,2.148-1.676c0.73-0.387,1.633-0.581,2.709-0.581
			c1.24,0,2.328,0.294,3.263,0.882c0.934,0.588,1.659,1.441,2.174,2.558c0.516,1.117,0.774,2.442,0.774,3.974
			c0,1.131-0.144,2.168-0.43,3.112c-0.289,0.944-0.705,1.763-1.252,2.456c-0.547,0.693-1.21,1.229-1.991,1.607
			c-0.779,0.378-1.639,0.568-2.578,0.568c-0.575,0-1.116-0.068-1.621-0.205c-0.507-0.137-0.938-0.317-1.293-0.54
			c-0.356-0.223-0.659-0.453-0.91-0.691c-0.25-0.237-0.581-0.593-0.991-1.067v0.369c0,0.703-0.169,1.234-0.506,1.594
			c-0.337,0.36-0.766,0.54-1.286,0.54c-0.529,0-0.95-0.18-1.266-0.54c-0.313-0.36-0.471-0.891-0.471-1.594V97.476
			c0-0.757,0.153-1.329,0.459-1.717c0.305-0.387,0.731-0.581,1.278-0.581c0.575,0,1.017,0.185,1.327,0.554
			C212.799,96.101,212.954,96.628,212.954,97.312z M213.132,108.406c0,1.487,0.339,2.629,1.02,3.427
			c0.679,0.798,1.571,1.197,2.674,1.197c0.939,0,1.749-0.408,2.428-1.224c0.68-0.816,1.02-1.985,1.02-3.509
			c0-0.985-0.142-1.833-0.424-2.545c-0.282-0.711-0.684-1.26-1.204-1.649c-0.52-0.387-1.127-0.581-1.819-0.581
			c-0.711,0-1.346,0.194-1.901,0.581c-0.556,0.388-0.994,0.949-1.313,1.683C213.291,106.521,213.132,107.394,213.132,108.406z"/>
		<path class="st1" d="M228.905,98.994c-0.52,0-0.964-0.159-1.334-0.479c-0.368-0.319-0.553-0.77-0.553-1.354
			c0-0.529,0.189-0.964,0.568-1.306c0.378-0.342,0.818-0.513,1.319-0.513c0.484,0,0.912,0.155,1.286,0.465
			c0.374,0.31,0.561,0.762,0.561,1.354c0,0.575-0.183,1.024-0.547,1.347C229.841,98.833,229.407,98.994,228.905,98.994z
			 M230.752,102.852v10.794c0,0.748-0.178,1.313-0.534,1.696c-0.356,0.383-0.807,0.575-1.354,0.575
			c-0.547,0-0.992-0.196-1.333-0.588c-0.343-0.392-0.514-0.953-0.514-1.683v-10.684c0-0.739,0.17-1.295,0.514-1.669
			c0.341-0.374,0.786-0.561,1.333-0.561c0.547,0,0.999,0.187,1.354,0.561C230.574,101.667,230.752,102.187,230.752,102.852z"/>
		<path class="st1" d="M234.61,113.646V97.448c0-0.747,0.167-1.313,0.499-1.696c0.333-0.383,0.782-0.575,1.348-0.575
			s1.021,0.19,1.368,0.568c0.347,0.379,0.52,0.946,0.52,1.703v16.197c0,0.757-0.175,1.325-0.527,1.703
			c-0.351,0.378-0.805,0.568-1.361,0.568c-0.547,0-0.993-0.196-1.333-0.588C234.78,114.937,234.61,114.376,234.61,113.646z"/>
		<path class="st1" d="M252.627,109.241h-7.305c0.009,0.848,0.18,1.596,0.514,2.244c0.332,0.648,0.775,1.135,1.326,1.464
			c0.552,0.328,1.162,0.492,1.827,0.492c0.446,0,0.854-0.052,1.225-0.157c0.368-0.104,0.726-0.269,1.073-0.493
			c0.347-0.223,0.665-0.463,0.958-0.718c0.292-0.255,0.67-0.602,1.135-1.04c0.191-0.164,0.465-0.246,0.821-0.246
			c0.383,0,0.693,0.105,0.93,0.315c0.238,0.21,0.356,0.506,0.356,0.889c0,0.338-0.132,0.732-0.397,1.183
			c-0.265,0.451-0.663,0.885-1.198,1.3c-0.532,0.415-1.204,0.759-2.01,1.033c-0.808,0.274-1.736,0.41-2.785,0.41
			c-2.399,0-4.263-0.684-5.595-2.052c-1.332-1.368-1.997-3.224-1.997-5.568c0-1.103,0.164-2.127,0.493-3.071
			c0.328-0.944,0.807-1.753,1.436-2.428c0.629-0.675,1.404-1.192,2.326-1.553c0.922-0.36,1.943-0.54,3.064-0.54
			c1.459,0,2.711,0.308,3.755,0.923c1.045,0.616,1.827,1.412,2.347,2.387c0.52,0.976,0.78,1.97,0.78,2.982
			c0,0.94-0.269,1.548-0.807,1.826C254.359,109.102,253.603,109.241,252.627,109.241z M245.322,107.12h6.772
			c-0.091-1.277-0.435-2.232-1.032-2.866c-0.598-0.634-1.384-0.951-2.361-0.951c-0.93,0-1.694,0.322-2.291,0.965
			C245.812,104.911,245.45,105.862,245.322,107.12z"/>
		<path class="st1" d="M266.28,113.441V97.64c0-0.821,0.187-1.436,0.561-1.847c0.374-0.41,0.857-0.616,1.45-0.616
			c0.611,0,1.106,0.203,1.484,0.609c0.379,0.406,0.568,1.024,0.568,1.854v15.801c0,0.83-0.189,1.45-0.568,1.861
			c-0.378,0.41-0.873,0.616-1.484,0.616c-0.583,0-1.065-0.208-1.444-0.622C266.469,114.879,266.28,114.261,266.28,113.441z"/>
		<path class="st1" d="M278.017,102.797v0.452c0.657-0.866,1.374-1.502,2.155-1.908c0.779-0.405,1.675-0.609,2.688-0.609
			c0.985,0,1.866,0.215,2.64,0.643c0.775,0.429,1.354,1.035,1.737,1.82c0.246,0.456,0.405,0.949,0.479,1.477
			c0.073,0.529,0.11,1.204,0.11,2.025v6.95c0,0.748-0.172,1.313-0.512,1.696c-0.343,0.383-0.787,0.575-1.334,0.575
			c-0.556,0-1.007-0.196-1.354-0.588c-0.347-0.392-0.52-0.953-0.52-1.683v-6.225c0-1.231-0.172-2.173-0.512-2.825
			c-0.343-0.652-1.025-0.978-2.046-0.978c-0.665,0-1.272,0.198-1.819,0.595c-0.547,0.397-0.949,0.942-1.204,1.635
			c-0.183,0.557-0.274,1.596-0.274,3.119v4.679c0,0.757-0.175,1.325-0.527,1.703c-0.351,0.378-0.805,0.568-1.361,0.568
			c-0.538,0-0.98-0.196-1.327-0.588c-0.347-0.392-0.52-0.953-0.52-1.683v-10.794c0-0.711,0.155-1.242,0.465-1.594
			c0.31-0.351,0.734-0.527,1.272-0.527c0.328,0,0.624,0.078,0.889,0.233c0.265,0.155,0.476,0.388,0.635,0.698
			C277.938,101.972,278.017,102.351,278.017,102.797z"/>
		<path class="st1" d="M291.752,101.06h0.41v-2.244c0-0.602,0.016-1.074,0.047-1.416c0.032-0.342,0.122-0.636,0.267-0.882
			c0.145-0.255,0.356-0.463,0.629-0.622c0.274-0.159,0.579-0.239,0.917-0.239c0.474,0,0.903,0.178,1.286,0.534
			c0.255,0.237,0.418,0.527,0.485,0.869c0.07,0.342,0.103,0.828,0.103,1.457v2.545h1.368c0.529,0,0.933,0.126,1.21,0.376
			c0.279,0.251,0.418,0.573,0.418,0.965c0,0.502-0.199,0.853-0.594,1.053c-0.398,0.201-0.965,0.301-1.704,0.301h-0.698v6.867
			c0,0.584,0.021,1.033,0.061,1.347c0.042,0.315,0.152,0.57,0.328,0.766c0.179,0.197,0.468,0.294,0.869,0.294
			c0.219,0,0.515-0.039,0.889-0.116c0.374-0.077,0.665-0.116,0.875-0.116c0.301,0,0.572,0.121,0.813,0.363
			c0.243,0.242,0.363,0.54,0.363,0.896c0,0.602-0.328,1.063-0.985,1.382c-0.657,0.319-1.601,0.479-2.832,0.479
			c-1.168,0-2.052-0.196-2.654-0.588c-0.602-0.392-0.996-0.935-1.183-1.628c-0.188-0.693-0.281-1.619-0.281-2.777v-7.168h-0.493
			c-0.538,0-0.949-0.127-1.231-0.383c-0.282-0.255-0.424-0.579-0.424-0.971c0-0.392,0.148-0.713,0.444-0.965
			C290.756,101.186,291.186,101.06,291.752,101.06z"/>
		<path class="st1" d="M311.89,109.241h-7.305c0.009,0.848,0.18,1.596,0.514,2.244c0.332,0.648,0.775,1.135,1.326,1.464
			c0.552,0.328,1.162,0.492,1.827,0.492c0.447,0,0.854-0.052,1.225-0.157c0.368-0.104,0.726-0.269,1.073-0.493
			c0.347-0.223,0.665-0.463,0.958-0.718c0.292-0.255,0.67-0.602,1.135-1.04c0.191-0.164,0.465-0.246,0.821-0.246
			c0.383,0,0.693,0.105,0.93,0.315c0.238,0.21,0.356,0.506,0.356,0.889c0,0.338-0.132,0.732-0.397,1.183
			c-0.265,0.451-0.663,0.885-1.198,1.3c-0.532,0.415-1.204,0.759-2.01,1.033c-0.808,0.274-1.736,0.41-2.785,0.41
			c-2.399,0-4.263-0.684-5.595-2.052c-1.332-1.368-1.997-3.224-1.997-5.568c0-1.103,0.164-2.127,0.493-3.071
			c0.328-0.944,0.807-1.753,1.436-2.428c0.629-0.675,1.404-1.192,2.326-1.553c0.922-0.36,1.943-0.54,3.064-0.54
			c1.459,0,2.711,0.308,3.755,0.923c1.045,0.616,1.827,1.412,2.347,2.387c0.52,0.976,0.78,1.97,0.78,2.982
			c0,0.94-0.269,1.548-0.807,1.826C313.622,109.102,312.866,109.241,311.89,109.241z M304.584,107.12h6.772
			c-0.091-1.277-0.435-2.232-1.032-2.866c-0.598-0.634-1.384-0.951-2.36-0.951c-0.93,0-1.694,0.322-2.291,0.965
			C305.074,104.911,304.712,105.862,304.584,107.12z"/>
		<path class="st1" d="M321.821,110.527v3.119c0,0.757-0.178,1.325-0.533,1.703c-0.356,0.378-0.807,0.568-1.354,0.568
			c-0.539,0-0.98-0.191-1.327-0.575c-0.347-0.383-0.52-0.948-0.52-1.696v-10.397c0-1.678,0.607-2.517,1.819-2.517
			c0.621,0,1.067,0.197,1.341,0.588c0.274,0.392,0.424,0.971,0.451,1.737c0.447-0.766,0.905-1.345,1.374-1.737
			c0.47-0.392,1.097-0.588,1.882-0.588s1.546,0.197,2.285,0.588c0.739,0.392,1.108,0.912,1.108,1.56
			c0,0.456-0.158,0.833-0.471,1.129c-0.316,0.297-0.655,0.445-1.02,0.445c-0.137,0-0.468-0.084-0.992-0.253
			c-0.524-0.168-0.986-0.253-1.388-0.253c-0.547,0-0.994,0.144-1.341,0.431c-0.347,0.287-0.616,0.714-0.807,1.279
			c-0.191,0.566-0.323,1.238-0.397,2.018C321.857,108.454,321.821,109.405,321.821,110.527z"/>
		<path class="st1" d="M333.778,102.797v0.452c0.657-0.866,1.374-1.502,2.155-1.908c0.779-0.405,1.675-0.609,2.688-0.609
			c0.985,0,1.865,0.215,2.64,0.643c0.775,0.429,1.354,1.035,1.737,1.82c0.246,0.456,0.405,0.949,0.479,1.477
			c0.073,0.529,0.109,1.204,0.109,2.025v6.95c0,0.748-0.172,1.313-0.512,1.696c-0.343,0.383-0.787,0.575-1.334,0.575
			c-0.556,0-1.007-0.196-1.354-0.588c-0.347-0.392-0.52-0.953-0.52-1.683v-6.225c0-1.231-0.172-2.173-0.512-2.825
			c-0.343-0.652-1.025-0.978-2.046-0.978c-0.665,0-1.272,0.198-1.819,0.595c-0.547,0.397-0.949,0.942-1.204,1.635
			c-0.183,0.557-0.274,1.596-0.274,3.119v4.679c0,0.757-0.175,1.325-0.527,1.703c-0.351,0.378-0.805,0.568-1.361,0.568
			c-0.539,0-0.98-0.196-1.327-0.588c-0.347-0.392-0.52-0.953-0.52-1.683v-10.794c0-0.711,0.155-1.242,0.465-1.594
			c0.31-0.351,0.734-0.527,1.272-0.527c0.328,0,0.624,0.078,0.889,0.233c0.265,0.155,0.476,0.388,0.636,0.698
			C333.698,101.972,333.778,102.351,333.778,102.797z"/>
		<path class="st1" d="M357.732,109.241h-7.305c0.009,0.848,0.18,1.596,0.514,2.244c0.332,0.648,0.775,1.135,1.326,1.464
			c0.552,0.328,1.162,0.492,1.827,0.492c0.446,0,0.854-0.052,1.225-0.157c0.368-0.104,0.726-0.269,1.073-0.493
			c0.347-0.223,0.665-0.463,0.958-0.718c0.292-0.255,0.67-0.602,1.135-1.04c0.192-0.164,0.465-0.246,0.821-0.246
			c0.383,0,0.693,0.105,0.93,0.315c0.237,0.21,0.356,0.506,0.356,0.889c0,0.338-0.132,0.732-0.397,1.183
			c-0.265,0.451-0.663,0.885-1.198,1.3c-0.532,0.415-1.204,0.759-2.01,1.033c-0.808,0.274-1.736,0.41-2.785,0.41
			c-2.399,0-4.263-0.684-5.595-2.052c-1.332-1.368-1.997-3.224-1.997-5.568c0-1.103,0.164-2.127,0.492-3.071
			c0.328-0.944,0.807-1.753,1.436-2.428c0.629-0.675,1.404-1.192,2.326-1.553c0.922-0.36,1.943-0.54,3.064-0.54
			c1.459,0,2.711,0.308,3.755,0.923c1.045,0.616,1.827,1.412,2.347,2.387c0.52,0.976,0.78,1.97,0.78,2.982
			c0,0.94-0.269,1.548-0.807,1.826C359.464,109.102,358.708,109.241,357.732,109.241z M350.427,107.12h6.772
			c-0.091-1.277-0.435-2.232-1.032-2.866c-0.598-0.634-1.384-0.951-2.361-0.951c-0.93,0-1.694,0.322-2.291,0.965
			C350.917,104.911,350.555,105.862,350.427,107.12z"/>
		<path class="st1" d="M364.162,101.06h0.41v-2.244c0-0.602,0.016-1.074,0.047-1.416c0.032-0.342,0.122-0.636,0.267-0.882
			c0.145-0.255,0.356-0.463,0.629-0.622c0.274-0.159,0.58-0.239,0.917-0.239c0.474,0,0.903,0.178,1.286,0.534
			c0.255,0.237,0.418,0.527,0.485,0.869c0.07,0.342,0.103,0.828,0.103,1.457v2.545h1.368c0.529,0,0.933,0.126,1.21,0.376
			c0.279,0.251,0.418,0.573,0.418,0.965c0,0.502-0.199,0.853-0.594,1.053c-0.398,0.201-0.965,0.301-1.704,0.301h-0.698v6.867
			c0,0.584,0.021,1.033,0.061,1.347c0.042,0.315,0.152,0.57,0.328,0.766c0.179,0.197,0.467,0.294,0.869,0.294
			c0.219,0,0.515-0.039,0.889-0.116c0.374-0.077,0.665-0.116,0.876-0.116c0.301,0,0.572,0.121,0.813,0.363
			c0.242,0.242,0.363,0.54,0.363,0.896c0,0.602-0.328,1.063-0.985,1.382c-0.657,0.319-1.601,0.479-2.832,0.479
			c-1.168,0-2.052-0.196-2.654-0.588c-0.602-0.392-0.996-0.935-1.183-1.628c-0.188-0.693-0.281-1.619-0.281-2.777v-7.168h-0.492
			c-0.539,0-0.949-0.127-1.231-0.383c-0.282-0.255-0.424-0.579-0.424-0.971c0-0.392,0.148-0.713,0.444-0.965
			C363.165,101.186,363.596,101.06,364.162,101.06z"/>
		<path class="st1" d="M396.378,109.555c0,1.213-0.312,2.303-0.938,3.269c-0.624,0.967-1.538,1.724-2.742,2.271
			c-1.204,0.547-2.631,0.821-4.282,0.821c-1.979,0-3.612-0.374-4.897-1.122c-0.912-0.538-1.653-1.256-2.224-2.155
			c-0.569-0.898-0.854-1.772-0.854-2.62c0-0.493,0.17-0.914,0.514-1.265c0.341-0.351,0.777-0.527,1.306-0.527
			c0.429,0,0.791,0.137,1.087,0.41c0.297,0.274,0.55,0.68,0.76,1.218c0.255,0.639,0.531,1.172,0.827,1.601
			c0.297,0.429,0.714,0.782,1.252,1.06c0.539,0.279,1.245,0.417,2.12,0.417c1.204,0,2.181-0.281,2.935-0.841
			c0.751-0.561,1.128-1.26,1.128-2.1c0-0.665-0.203-1.206-0.608-1.621c-0.407-0.415-0.93-0.732-1.574-0.951
			c-0.642-0.219-1.502-0.451-2.578-0.698c-1.441-0.337-2.648-0.732-3.618-1.183c-0.972-0.451-1.742-1.067-2.313-1.847
			c-0.57-0.78-0.854-1.749-0.854-2.907c0-1.103,0.301-2.084,0.903-2.941c0.602-0.857,1.472-1.516,2.613-1.977
			c1.14-0.46,2.481-0.691,4.022-0.691c1.231,0,2.296,0.153,3.194,0.458c0.899,0.306,1.644,0.711,2.237,1.218
			c0.593,0.506,1.026,1.038,1.3,1.594c0.274,0.557,0.41,1.099,0.41,1.628c0,0.484-0.172,0.919-0.512,1.306
			c-0.343,0.388-0.769,0.581-1.28,0.581c-0.465,0-0.818-0.116-1.061-0.349c-0.241-0.233-0.504-0.613-0.786-1.142
			c-0.364-0.757-0.802-1.348-1.313-1.772c-0.511-0.424-1.332-0.636-2.462-0.636c-1.048,0-1.895,0.231-2.537,0.691
			c-0.644,0.461-0.965,1.015-0.965,1.662c0,0.402,0.109,0.748,0.328,1.04c0.219,0.292,0.52,0.543,0.903,0.753
			c0.383,0.21,0.771,0.374,1.163,0.492c0.392,0.119,1.04,0.292,1.943,0.52c1.131,0.265,2.155,0.557,3.07,0.875
			c0.918,0.32,1.696,0.707,2.341,1.163c0.642,0.456,1.144,1.033,1.505,1.731C396.198,107.688,396.378,108.543,396.378,109.555z"/>
		<path class="st1" d="M413.547,108.324c0,1.113-0.173,2.139-0.52,3.078c-0.347,0.94-0.848,1.747-1.505,2.421
			c-0.657,0.675-1.441,1.193-2.353,1.553c-0.912,0.36-1.938,0.54-3.078,0.54c-1.13,0-2.148-0.183-3.051-0.547
			c-0.903-0.364-1.685-0.887-2.347-1.566c-0.66-0.679-1.161-1.482-1.505-2.408c-0.341-0.925-0.512-1.949-0.512-3.071
			c0-1.131,0.173-2.166,0.52-3.105c0.347-0.939,0.843-1.742,1.491-2.408c0.648-0.665,1.432-1.178,2.353-1.539
			c0.921-0.36,1.938-0.54,3.051-0.54c1.131,0,2.157,0.183,3.078,0.547c0.922,0.365,1.71,0.885,2.367,1.559
			c0.657,0.675,1.156,1.478,1.497,2.408C413.377,106.176,413.547,107.202,413.547,108.324z M409.799,108.324
			c0-1.523-0.335-2.709-1.006-3.557c-0.669-0.848-1.571-1.272-2.701-1.272c-0.73,0-1.373,0.19-1.929,0.568
			c-0.556,0.379-0.985,0.937-1.286,1.676c-0.301,0.739-0.451,1.601-0.451,2.586c0,0.976,0.148,1.829,0.445,2.558
			c0.296,0.73,0.72,1.288,1.271,1.676c0.552,0.388,1.203,0.581,1.95,0.581c1.131,0,2.032-0.426,2.701-1.279
			C409.464,111.008,409.799,109.829,409.799,108.324z"/>
		<path class="st1" d="M416.488,113.646V97.448c0-0.747,0.167-1.313,0.499-1.696c0.333-0.383,0.782-0.575,1.348-0.575
			s1.021,0.19,1.368,0.568c0.347,0.379,0.52,0.946,0.52,1.703v16.197c0,0.757-0.175,1.325-0.527,1.703
			c-0.351,0.378-0.805,0.568-1.361,0.568c-0.547,0-0.993-0.196-1.333-0.588C416.659,114.937,416.488,114.376,416.488,113.646z"/>
		<path class="st1" d="M433.78,113.81v-0.479c-0.447,0.566-0.917,1.04-1.409,1.423c-0.493,0.383-1.031,0.668-1.614,0.855
			c-0.583,0.187-1.25,0.28-1.997,0.28c-0.903,0-1.712-0.187-2.429-0.561c-0.715-0.374-1.27-0.889-1.662-1.546
			c-0.465-0.793-0.698-1.933-0.698-3.42v-7.401c0-0.747,0.169-1.306,0.506-1.676c0.337-0.369,0.785-0.554,1.341-0.554
			c0.566,0,1.021,0.187,1.368,0.561c0.347,0.374,0.52,0.93,0.52,1.669v5.978c0,0.867,0.073,1.594,0.219,2.182
			c0.145,0.588,0.408,1.049,0.786,1.382c0.379,0.333,0.892,0.499,1.54,0.499c0.629,0,1.222-0.187,1.778-0.561
			c0.556-0.374,0.963-0.862,1.218-1.464c0.21-0.529,0.315-1.687,0.315-3.475v-4.542c0-0.739,0.173-1.295,0.52-1.669
			c0.347-0.374,0.799-0.561,1.354-0.561c0.556,0,1.004,0.185,1.341,0.554c0.337,0.369,0.506,0.928,0.506,1.676v10.821
			c0,0.711-0.162,1.245-0.485,1.601c-0.325,0.356-0.741,0.534-1.252,0.534c-0.511,0-0.933-0.185-1.265-0.554
			C433.947,114.993,433.78,114.476,433.78,113.81z"/>
		<path class="st1" d="M441.208,101.06h0.41v-2.244c0-0.602,0.016-1.074,0.047-1.416c0.032-0.342,0.122-0.636,0.267-0.882
			c0.145-0.255,0.356-0.463,0.629-0.622c0.274-0.159,0.58-0.239,0.917-0.239c0.474,0,0.903,0.178,1.286,0.534
			c0.255,0.237,0.418,0.527,0.485,0.869c0.07,0.342,0.103,0.828,0.103,1.457v2.545h1.368c0.529,0,0.933,0.126,1.21,0.376
			c0.279,0.251,0.418,0.573,0.418,0.965c0,0.502-0.199,0.853-0.594,1.053c-0.398,0.201-0.965,0.301-1.704,0.301h-0.698v6.867
			c0,0.584,0.021,1.033,0.061,1.347c0.042,0.315,0.152,0.57,0.328,0.766c0.179,0.197,0.468,0.294,0.869,0.294
			c0.219,0,0.515-0.039,0.889-0.116c0.374-0.077,0.665-0.116,0.876-0.116c0.301,0,0.572,0.121,0.813,0.363
			c0.242,0.242,0.363,0.54,0.363,0.896c0,0.602-0.328,1.063-0.985,1.382c-0.657,0.319-1.601,0.479-2.832,0.479
			c-1.168,0-2.052-0.196-2.654-0.588c-0.602-0.392-0.996-0.935-1.183-1.628c-0.188-0.693-0.281-1.619-0.281-2.777v-7.168h-0.493
			c-0.539,0-0.949-0.127-1.231-0.383c-0.282-0.255-0.424-0.579-0.424-0.971c0-0.392,0.148-0.713,0.444-0.965
			C440.212,101.186,440.643,101.06,441.208,101.06z"/>
		<path class="st1" d="M452.809,98.994c-0.52,0-0.964-0.159-1.334-0.479c-0.368-0.319-0.553-0.77-0.553-1.354
			c0-0.529,0.189-0.964,0.568-1.306c0.378-0.342,0.818-0.513,1.32-0.513c0.484,0,0.912,0.155,1.286,0.465
			c0.374,0.31,0.561,0.762,0.561,1.354c0,0.575-0.183,1.024-0.547,1.347C453.744,98.833,453.31,98.994,452.809,98.994z
			 M454.656,102.852v10.794c0,0.748-0.178,1.313-0.534,1.696c-0.356,0.383-0.807,0.575-1.354,0.575
			c-0.547,0-0.992-0.196-1.333-0.588c-0.343-0.392-0.514-0.953-0.514-1.683v-10.684c0-0.739,0.17-1.295,0.514-1.669
			c0.341-0.374,0.786-0.561,1.333-0.561c0.547,0,0.999,0.187,1.354,0.561C454.478,101.667,454.656,102.187,454.656,102.852z"/>
		<path class="st1" d="M472.495,108.324c0,1.113-0.173,2.139-0.52,3.078c-0.347,0.94-0.848,1.747-1.505,2.421
			c-0.657,0.675-1.441,1.193-2.353,1.553c-0.912,0.36-1.938,0.54-3.078,0.54c-1.131,0-2.148-0.183-3.051-0.547
			c-0.903-0.364-1.685-0.887-2.347-1.566c-0.66-0.679-1.162-1.482-1.505-2.408c-0.341-0.925-0.512-1.949-0.512-3.071
			c0-1.131,0.173-2.166,0.52-3.105c0.347-0.939,0.843-1.742,1.491-2.408c0.648-0.665,1.431-1.178,2.353-1.539
			c0.922-0.36,1.938-0.54,3.051-0.54c1.13,0,2.156,0.183,3.078,0.547c0.922,0.365,1.71,0.885,2.367,1.559
			c0.657,0.675,1.157,1.478,1.497,2.408C472.325,106.176,472.495,107.202,472.495,108.324z M468.747,108.324
			c0-1.523-0.334-2.709-1.006-3.557c-0.669-0.848-1.571-1.272-2.701-1.272c-0.73,0-1.373,0.19-1.929,0.568
			c-0.556,0.379-0.985,0.937-1.286,1.676c-0.301,0.739-0.452,1.601-0.452,2.586c0,0.976,0.148,1.829,0.445,2.558
			c0.296,0.73,0.72,1.288,1.271,1.676c0.552,0.388,1.203,0.581,1.95,0.581c1.13,0,2.032-0.426,2.701-1.279
			C468.412,111.008,468.747,109.829,468.747,108.324z"/>
		<path class="st1" d="M478.829,102.797v0.452c0.657-0.866,1.374-1.502,2.155-1.908c0.779-0.405,1.675-0.609,2.688-0.609
			c0.985,0,1.865,0.215,2.64,0.643c0.775,0.429,1.354,1.035,1.737,1.82c0.246,0.456,0.405,0.949,0.479,1.477
			c0.073,0.529,0.109,1.204,0.109,2.025v6.95c0,0.748-0.172,1.313-0.512,1.696c-0.343,0.383-0.787,0.575-1.334,0.575
			c-0.556,0-1.007-0.196-1.354-0.588c-0.347-0.392-0.52-0.953-0.52-1.683v-6.225c0-1.231-0.172-2.173-0.512-2.825
			c-0.343-0.652-1.025-0.978-2.046-0.978c-0.665,0-1.272,0.198-1.819,0.595c-0.547,0.397-0.949,0.942-1.204,1.635
			c-0.183,0.557-0.274,1.596-0.274,3.119v4.679c0,0.757-0.175,1.325-0.527,1.703c-0.351,0.378-0.805,0.568-1.361,0.568
			c-0.539,0-0.98-0.196-1.327-0.588c-0.347-0.392-0.52-0.953-0.52-1.683v-10.794c0-0.711,0.155-1.242,0.465-1.594
			c0.31-0.351,0.734-0.527,1.272-0.527c0.328,0,0.624,0.078,0.889,0.233c0.265,0.155,0.476,0.388,0.635,0.698
			C478.749,101.972,478.829,102.351,478.829,102.797z"/>
		<path class="st1" d="M504.384,111.033c0,1.031-0.251,1.913-0.753,2.647c-0.501,0.734-1.242,1.291-2.222,1.669
			c-0.981,0.378-2.174,0.568-3.578,0.568c-1.341,0-2.49-0.205-3.447-0.616c-0.958-0.41-1.664-0.923-2.121-1.539
			c-0.456-0.616-0.684-1.233-0.684-1.854c0-0.41,0.146-0.761,0.438-1.053c0.292-0.292,0.662-0.438,1.108-0.438
			c0.392,0,0.693,0.096,0.903,0.287c0.21,0.192,0.41,0.461,0.602,0.807c0.383,0.666,0.842,1.163,1.374,1.491
			c0.535,0.328,1.261,0.492,2.183,0.492c0.747,0,1.362-0.166,1.839-0.499c0.48-0.333,0.719-0.713,0.719-1.142
			c0-0.657-0.249-1.135-0.746-1.436c-0.496-0.301-1.315-0.588-2.455-0.862c-1.286-0.319-2.333-0.654-3.139-1.006
			c-0.808-0.351-1.453-0.814-1.936-1.389c-0.484-0.575-0.725-1.281-0.725-2.12c0-0.747,0.224-1.454,0.67-2.12
			c0.446-0.665,1.106-1.197,1.976-1.594c0.872-0.397,1.923-0.595,3.154-0.595c0.966,0,1.836,0.101,2.607,0.301
			c0.77,0.201,1.413,0.47,1.928,0.807c0.516,0.338,0.908,0.711,1.177,1.122c0.27,0.41,0.404,0.812,0.404,1.204
			c0,0.429-0.143,0.78-0.431,1.053c-0.286,0.274-0.695,0.41-1.224,0.41c-0.383,0-0.709-0.11-0.978-0.328
			c-0.27-0.219-0.577-0.547-0.924-0.985c-0.282-0.364-0.616-0.657-0.999-0.876c-0.383-0.219-0.903-0.328-1.56-0.328
			c-0.675,0-1.236,0.144-1.683,0.431c-0.447,0.287-0.67,0.645-0.67,1.074c0,0.392,0.164,0.714,0.492,0.965
			c0.328,0.251,0.771,0.458,1.327,0.622c0.556,0.164,1.322,0.365,2.298,0.602c1.158,0.283,2.104,0.621,2.839,1.012
			c0.734,0.392,1.29,0.855,1.669,1.389C504.194,109.74,504.384,110.349,504.384,111.033z"/>
	</g>
	<path class="st0" d="M341.621,88.798c-3.968,0-6.937-0.677-9.079-2.072c-2.179-1.419-3.628-3.411-4.305-5.923
		c-0.614-2.276-0.925-5.32-0.925-9.047V50.841h-0.08c-2.044,0-3.665-0.529-4.819-1.571c-1.181-1.065-1.805-2.488-1.805-4.113
		c0-1.642,0.658-3.068,1.903-4.122c1.158-0.98,2.772-1.49,4.8-1.518V33.97c0-1.915,0.053-3.447,0.155-4.554
		c0.12-1.279,0.467-2.41,1.03-3.362c0.571-0.999,1.41-1.832,2.483-2.459c1.077-0.628,2.287-0.946,3.595-0.946
		c1.853,0,3.537,0.691,5.005,2.055c1.022,0.951,1.679,2.126,1.953,3.493c0.235,1.173,0.349,2.754,0.349,4.833v6.484h2.812
		c2.015,0,3.615,0.521,4.755,1.549c1.167,1.053,1.783,2.469,1.783,4.092c0,2.683-1.445,3.976-2.657,4.588
		c-1.459,0.737-3.413,1.096-5.973,1.096h-0.72v19.976c0,1.75,0.061,3.102,0.179,4.017c0.09,0.687,0.306,1.21,0.659,1.6
		c0.258,0.284,0.837,0.44,1.632,0.44c0.581,0,1.415-0.112,2.479-0.332c1.281-0.265,2.271-0.394,3.029-0.394
		c1.335,0,2.536,0.524,3.571,1.558c1.035,1.035,1.558,2.322,1.558,3.828c0,1.701-0.676,4.058-3.894,5.623
		C348.825,88.262,345.725,88.798,341.621,88.798z"/>
	<path class="st0" d="M363.566,88.798c-2.139,0-3.91-0.786-5.262-2.335c-1.301-1.491-1.96-3.58-1.96-6.21V46.908
		c0-2.669,0.668-4.753,1.983-6.192c1.351-1.476,3.113-2.224,5.239-2.224c2.115,0,3.893,0.742,5.283,2.203
		c1.372,1.443,2.067,3.419,2.067,5.872v33.687c0,2.703-0.692,4.818-2.055,6.286C367.469,88.038,365.689,88.798,363.566,88.798z"/>
	<path class="st0" d="M363.695,35.983c-1.975,0-3.697-0.622-5.116-1.849c-1.482-1.28-2.233-3.073-2.233-5.329
		c0-2.073,0.757-3.809,2.252-5.159c1.453-1.311,3.168-1.977,5.098-1.977c1.849,0,3.513,0.601,4.943,1.787
		c1.513,1.254,2.279,3.053,2.279,5.349c0,2.22-0.74,4.002-2.199,5.296C367.31,35.35,365.62,35.983,363.695,35.983z"/>
	<g>
		<g>
			<path class="st2" d="M31.107,63.54c0.437,14.32,5.402,25.895,15.178,35.385c2.273,2.202,4.37,3.039,6.799,2.717
				c3.253-0.443,5.261-2.018,6.317-4.956c1.007-2.798,0.45-5.287-1.805-8.068c-0.607-0.747-1.241-1.485-1.874-2.221
				c-1.836-2.136-3.733-4.345-5.172-6.953c-7.116-12.882-4.917-28.342,5.597-39.383c2.544-2.671,6.124-7.836,1.538-12.413
				c-3.577-3.568-8.107-2.77-12.564,1.821C36.132,38.725,31.547,49.87,31.107,63.54z"/>
			<path class="st2" d="M31.359,0c-2.929,0-4.524,0.489-7.213,3.506C-0.179,30.8-6.162,61.97,6.365,96.151
				c3.648,9.955,9.647,19.187,18.339,28.228c2.522,2.625,5.386,3.452,8.825,2.568c3.659-0.943,5.048-3.703,5.57-5.852
				c0.89-3.655-0.812-6.455-3.85-9.79C11.278,84.993,10.055,47.15,32.276,19.277c0.788-0.986,1.63-1.933,2.473-2.876
				c1.198-1.342,2.329-2.609,3.26-3.968c1.786-2.605,1.882-5.402,0.285-8.316C36.765,1.322,34.563,0.014,31.364,0H31.359z"/>
		</g>
	</g>
	<path class="st0" d="M417.278,88.798c-2.017,0-3.71-0.744-5.033-2.211c-0.885-0.983-1.47-2.221-1.746-3.697
		c-0.729,0.723-1.473,1.381-2.232,1.972c-1.668,1.297-3.514,2.274-5.489,2.906c-1.96,0.626-4.206,0.944-6.678,0.944
		c-3.043,0-5.819-0.645-8.253-1.916c-2.466-1.288-4.406-3.094-5.764-5.369c-1.607-2.74-2.384-6.472-2.384-11.421V46.908
		c0-2.698,0.66-4.789,1.961-6.213c1.336-1.462,3.105-2.204,5.26-2.204c2.179,0,3.975,0.746,5.339,2.217
		c1.335,1.44,2.011,3.526,2.011,6.2v18.658c0,2.573,0.215,4.747,0.64,6.459c0.386,1.556,1.04,2.723,2.002,3.569
		c0.915,0.805,2.17,1.196,3.841,1.196c1.684,0,3.234-0.492,4.738-1.502c1.51-1.016,2.58-2.301,3.271-3.929
		c0.388-0.979,0.867-3.589,0.867-10.276V46.908c0-2.674,0.676-4.759,2.011-6.2c1.364-1.472,3.145-2.217,5.296-2.217
		c2.155,0,3.924,0.742,5.26,2.204c1.301,1.424,1.961,3.515,1.961,6.213V80.68c0,2.584-0.638,4.595-1.896,5.977
		C420.969,88.077,419.292,88.798,417.278,88.798z"/>
	<path class="st0" d="M494.303,88.798c-2.185,0-4.006-0.786-5.412-2.335c-1.371-1.509-2.065-3.685-2.065-6.466V60.4
		c0-2.424-0.102-4.381-0.306-5.816c-0.172-1.222-0.618-2.21-1.361-3.019c-0.656-0.717-1.702-1.065-3.195-1.065
		c-1.257,0-2.427,0.368-3.574,1.125c-1.174,0.776-2.065,1.792-2.723,3.108c-0.497,1.146-1.127,3.841-1.127,9.766v15.499
		c0,2.811-0.687,4.993-2.044,6.487c-1.393,1.536-3.235,2.314-5.477,2.314c-2.187,0-3.996-0.781-5.377-2.32
		c-1.336-1.494-2.015-3.673-2.015-6.481V61.424c0-2.859-0.097-5.098-0.287-6.654c-0.165-1.346-0.586-2.401-1.288-3.227
		c-0.588-0.692-1.622-1.044-3.073-1.044c-3.222,0-5.255,1.008-6.212,3.082c-1.116,2.414-1.681,6.001-1.681,10.661v15.755
		c0,2.775-0.676,4.946-2.01,6.452c-1.379,1.559-3.205,2.349-5.425,2.349c-2.185,0-4.006-0.786-5.412-2.335
		c-1.371-1.509-2.065-3.685-2.065-6.466V46.651c0-2.549,0.633-4.555,1.883-5.962c1.295-1.459,3.006-2.198,5.082-2.198
		c1.987,0,3.678,0.683,5.022,2.028c0.863,0.863,1.453,1.927,1.766,3.178c1.48-1.373,3.036-2.466,4.65-3.262
		c2.498-1.233,5.301-1.859,8.33-1.859c3.168,0,5.949,0.65,8.263,1.933c1.8,0.998,3.367,2.397,4.675,4.171
		c1.719-1.815,3.558-3.228,5.482-4.214c2.445-1.254,5.183-1.89,8.136-1.89c3.419,0,6.426,0.692,8.936,2.055
		c2.566,1.395,4.512,3.421,5.78,6.022c1.107,2.342,1.642,5.8,1.642,10.587v22.757c0,2.811-0.687,4.993-2.044,6.487
		C498.386,88.02,496.544,88.798,494.303,88.798z"/>
</g>
</svg>