<!-- Generator: Adobe Illustrator 21.0.0, SVG Export Plug-In  -->
<svg version="1.1"
	 xmlns="http://www.w3.org/2000/svg" xmlns:xlink="http://www.w3.org/1999/xlink" xmlns:a="http://ns.adobe.com/AdobeSVGViewerExtensions/3.0/"
	 x="0px" y="0px" width="89.758px" height="89.758px" viewBox="0 0 89.758 89.758"
	 style="enable-background:new 0 0 89.758 89.758;" xml:space="preserve">
<style type="text/css">
	.st0{fill:#939598;}
	.st1{fill:#FFFFFF;}
</style>
<defs>
</defs>
<g>
	<path class="st0" d="M89.758,44.879c0,24.785-20.094,44.879-44.879,44.879S0,69.664,0,44.879C0,20.094,20.094,0,44.879,0
		S89.758,20.094,89.758,44.879L89.758,44.879z M89.758,44.879"/>
	<path class="st1" d="M56.16,46.637h-8.008v29.336H36.02V46.637h-5.77V36.324h5.77v-6.671c0-4.77,2.265-12.243,12.242-12.243
		l8.984,0.039v10.008h-6.519c-1.071,0-2.575,0.535-2.575,2.809v6.07h9.071L56.16,46.637z M56.16,46.637"/>
</g>
</svg>