<!-- Generator: Adobe Illustrator 21.0.0, SVG Export Plug-In  -->
<svg version="1.1"
	 xmlns="http://www.w3.org/2000/svg" xmlns:xlink="http://www.w3.org/1999/xlink" xmlns:a="http://ns.adobe.com/AdobeSVGViewerExtensions/3.0/"
	 x="0px" y="0px" width="89.758px" height="89.757px" viewBox="0 0 89.758 89.757"
	 style="enable-background:new 0 0 89.758 89.757;" xml:space="preserve">
<style type="text/css">
	.st0{fill:#939598;}
</style>
<defs>
</defs>
<g>
	<path class="st0" d="M58.257,23.882H31.504c-4.273,0-7.744,3.471-7.744,7.744v26.749c0,4.273,3.471,7.749,7.744,7.749h26.753
		c4.269,0,7.745-3.476,7.745-7.749V31.626C66.003,27.353,62.526,23.882,58.257,23.882L58.257,23.882z M44.878,58.907
		c-7.665,0-13.906-6.241-13.906-13.906c0-7.666,6.241-13.907,13.906-13.907c7.671,0,13.907,6.24,13.907,13.907
		C58.785,52.666,52.545,58.907,44.878,58.907L44.878,58.907z M59.235,33.969c-1.816,0-3.291-1.474-3.291-3.29
		c0-1.813,1.475-3.291,3.291-3.291c1.811,0,3.291,1.479,3.291,3.291C62.526,32.496,61.046,33.969,59.235,33.969L59.235,33.969z
		 M59.235,33.969"/>
	<path class="st0" d="M44.878,36.973c-4.424,0-8.028,3.599-8.028,8.028c0,4.429,3.604,8.031,8.028,8.031
		c4.429,0,8.033-3.603,8.033-8.031C52.911,40.577,49.307,36.973,44.878,36.973L44.878,36.973z M44.878,36.973"/>
	<path class="st0" d="M44.878,0C20.093,0,0,20.093,0,44.878c0,24.786,20.093,44.878,44.878,44.878s44.88-20.093,44.88-44.878
		C89.758,20.093,69.664,0,44.878,0L44.878,0z M71.876,58.375c0,7.515-6.109,13.623-13.619,13.623H31.504
		c-7.51,0-13.623-6.108-13.623-13.623V31.626c0-7.509,6.113-13.623,13.623-13.623h26.753c7.51,0,13.619,6.114,13.619,13.623V58.375z
		 M71.876,58.375"/>
</g>
</svg>